<?xml version="1.0" encoding="UTF-8"?>
<svg id="Camada_1" data-name="Camada 1" xmlns="http://www.w3.org/2000/svg" viewBox="0 0 1080 1080">
  <defs>
    <style>
      .cls-1 {
        fill: #644595;
      }
    </style>
  </defs>
  <path class="cls-1" d="M1080,849.81c-9.04,19.92-25.08,25.96-46.02,25.27-28.41-.94-56.88-.24-84.08-.24-8.44,15.54-14.77,31.42-24.66,44.61-32.72,43.64-77.4,62.51-131.05,53.94-51.81-8.28-87.64-38.82-106.28-88.24-2.91-7.71-6.09-10.62-14.72-10.56-60.43,.46-120.87,.38-181.31,.06-7.2-.04-10.18,2.17-12.56,8.89-19.72,55.62-70.31,91.75-128.22,92.12-57.1,.36-108.89-36.39-128.9-91.48-1.06-2.92-2.12-5.85-3.39-9.34-28.2,0-56.28,.14-84.36-.05-20.07-.13-34.82-11.83-37.08-28.87-2.98-22.47,11.8-39.65,35.23-40.05,24.59-.42,49.19-.1,73.79-.11,3.83,0,7.67,0,12.11,0,7.6-26.88,20.93-49.95,41.74-68.24,73.65-64.74,187.15-35.03,219.15,57.67,3.01,8.73,6.99,10.8,15.53,10.75,59.73-.35,119.47-.21,179.2-.13,5.48,0,9.41,0,11.8-6.92,20.59-59.75,72.67-97.62,131.51-96.3,60.99,1.38,110.58,39.73,129.75,100.33,.21,.65,.53,1.26,1,2.36h63.01c.2-3.78,.55-7.46,.55-11.15,.04-51.31,.21-102.62-.24-153.92-.05-5.73-2.58-12.29-5.98-17-11.94-16.49-24.95-32.2-37.15-48.51-4.16-5.56-8.68-7.75-15.78-7.72-80.81,.27-161.64-.67-242.44,.57-33.85,.52-47.55-15.54-47.06-47.73,1.06-70.27,.33-140.57,.33-210.85v-13.93c-5.22,0-9.67,0-14.11,0-170.42,0-340.83,.02-511.25-.09-6.23,0-12.76-.41-18.63-2.27-14.99-4.75-23.56-19.02-22.26-35.35,1.2-15.02,11.67-26.93,26.7-29.8,5.13-.98,10.45-1.33,15.69-1.33,183.06-.07,366.13,.18,549.19-.3,27.81-.07,45.88,14.89,43.43,43.65-.68,7.93-.1,15.96-.1,25.09,4.89,0,8.66,0,12.43,0,41.81,0,83.63,.49,125.44-.21,20.12-.33,32.74,8.15,41.45,25.92,22.69,46.27,47.28,91.64,68.99,138.36,19.86,42.74,45.62,81.17,75.37,117.37,9.05,11.02,16.24,23.58,24.28,35.43v238.31Zm-157.47-351.98c-.7-2.31-.96-4.03-1.71-5.52-20.72-41.34-41.36-82.72-62.53-123.83-1.51-2.93-6.91-5.43-10.53-5.47-35.81-.4-71.63-.26-107.44-.21-2.65,0-5.3,.52-7.5,.75v134.28h189.71Zm-504.31,340.93c-.15-37.45-30.27-67.28-67.79-67.12-37.03,.15-67.83,31.15-67.46,67.89,.38,36.9,31.38,67.48,68.23,67.29,37.21-.19,67.17-30.62,67.02-68.06Zm330.18-.38c-.45,37.38,29.44,68.1,66.62,68.45,36.92,.35,67.59-29.55,68.66-66.93,1.04-36.19-30.22-67.96-67.14-68.25-37.58-.29-67.69,29.19-68.14,66.74Z"/>
  <path class="cls-1" d="M180.11,499.8c48.12,0,96.24-.1,144.36,.08,15.29,.06,27.27,8.81,32.3,22.58,4.73,12.93,2.09,28.35-9.12,36.18-7.57,5.29-17.8,9.42-26.87,9.49-94.13,.67-188.26,.62-282.39,.29-28.53-.1-45.86-24.17-35.23-47.92,6.39-14.28,18.08-20.75,33.65-20.73,47.77,.06,95.54,.02,143.3,.03Z"/>
  <path class="cls-1" d="M235.16,434.31c-48.46,0-96.92,.13-145.39-.08-17.67-.07-31.11-12.39-33.86-30.02-2.27-14.59,7.18-30.53,22.01-35.64,5.5-1.89,11.67-2.51,17.54-2.52,93.06-.15,186.12-.17,279.18-.06,24.51,.03,39.49,13.12,39.65,33.92,.14,19.38-14.67,34.29-34.81,34.35-48.11,.16-96.22,.05-144.33,.04Z"/>
  <path class="cls-1" d="M166.98,702.12c-24.94,0-49.88,.11-74.82-.04-20.55-.12-35.62-13.92-36.55-33.09-.86-17.76,12.63-33.23,32.28-34.9,15.35-1.31,30.87-.69,46.32-.72,34.78-.07,69.55-.18,104.33,.11,6.91,.06,14.19,.74,20.64,3,14.74,5.17,23.62,21.1,21.32,36.09-2.57,16.73-16.18,29.18-33.41,29.42-26.69,.36-53.39,.1-80.09,.1v.03Z"/>
</svg>