<?xml version="1.0" encoding="UTF-8"?>
<svg id="Camada_1" data-name="Camada 1" xmlns="http://www.w3.org/2000/svg" viewBox="0 0 1080 1080">
  <defs>
    <style>
      .cls-1 {
        fill: #604595;
      }

      .cls-2 {
        fill: #644595;
      }
    </style>
  </defs>
  <path class="cls-2" d="M1065.29,936.03c-.62-.06-1.24-.12-1.85-.19,0-10.92,.07-21.84-.01-32.75-.38-52.07-43.27-94.54-95.54-94.66-53.2-.12-96.57,42.02-96.93,94.3-.15,21.49-.12,42.99-.01,64.48,.24,47.76,35.72,87.83,83.79,94.76,45.28,6.53,92-22.57,104.03-67.39,5.03-18.75,4.51-38.99,6.52-58.56Z"/>
  <path class="cls-2" d="M672.23,13.66c14.7,6.73,30.9,11.38,43.79,20.65,24.36,17.52,36.03,43.03,36.05,73.25,.09,131.39,.12,262.79,0,394.18-.05,51.89-41.75,93.47-93.67,93.6-56.65,.14-113.3,.03-169.96,.03-3.71,0-7.43,0-11.87,0v83.74c7.89,0,15.92-.16,23.94,.04,13.63,.33,22.01,8.06,22.15,20.16,.14,12.38-8.8,20.9-22.6,20.92-77.81,.08-155.62,.08-233.44,0-13.34-.01-22.15-8.14-22.44-20.03-.31-12.61,8.17-20.71,22.29-21.05,7.76-.18,15.53-.03,23.9-.03v-83.74c-3.84,0-7.46,0-11.08,0-55.63,0-111.26,.02-166.89,0-48.42-.02-83.64-27.47-95.76-74.49-.31-1.19-1.27-2.22-1.93-3.32,0-142.02,0-284.04,0-426.06,.82-2.1,1.81-4.15,2.42-6.31C26.24,53.02,46.18,30.73,77.56,18.88c4.95-1.87,9.99-3.49,14.99-5.22,193.23,0,386.45,0,579.68,0Zm34.62,71.82c-1.6-.79-3.2-1.58-4.81-2.36-2.31,3.4-4.15,7.28-7,10.14-66.77,66.94-133.64,133.78-200.51,200.62-2.41,2.41-4.8,4.89-7.52,6.92-12.29,9.19-28.25,3.76-32.58-10.96-2.96-10.06,2.37-16.85,8.89-23.37,66.89-66.82,133.73-133.69,200.56-200.56,2.58-2.58,5-5.32,8.49-9.05-6.03-.88-10.64-2.1-15.26-2.13-29.01-.19-58.03-.31-87.03,.13-3.77,.06-8.31,2.64-11.11,5.43-124.43,124.16-248.71,248.47-372.97,372.79-1.7,1.7-3.03,3.78-4.85,6.08H710.78c.15-2.16,.36-3.8,.36-5.43,.01-108.2,.1-216.4-.18-324.59-.02-7.89-2.68-15.77-4.11-23.66Zm-201.72-30.86h-12.52c-125.55,0-251.11,0-376.66,0-38.64,0-60.27,21.57-60.28,60.11-.02,104.4,0,208.8,0,313.2,0,3.64,0,7.29,0,11.8,18.76,0,36.44-.39,54.08,.18,7.84,.26,13.15-2.36,18.61-7.83,122.65-122.94,245.49-245.7,368.27-368.5,2.35-2.35,4.59-4.83,8.5-8.97ZM55.66,481.17c0,5.57-.01,10,0,14.43,.1,36.52,22.16,58.73,58.51,58.82,23.2,.06,46.4,.01,69.6,.01,156.25,0,312.51-.04,468.76,.05,18.76,0,34.88-5.54,46.88-20.52,12.46-15.55,12.72-33.71,11.23-52.79H55.66Zm378.44,115.02h-101.21v82.38h101.21v-82.38Z"/>
  <path class="cls-2" d="M14.71,845.29c2.48-5.87,4.43-12.04,7.53-17.57,12.87-22.91,32.3-35.62,58.94-35.63,214.98-.08,429.95-.07,644.93-.02,37.75,0,66.84,28.97,66.93,66.55,.11,45.72,.11,91.45,0,137.18-.09,37.58-29.17,66.57-66.92,66.58-214.29,.05-428.59,.04-642.88,.02-32.35,0-56.86-18.13-66.39-48.85-.48-1.53-1.42-2.92-2.14-4.38,0-54.62,0-109.25,0-163.87Zm389.18-12.3c-105.45,0-210.91-.01-316.36,.01-22.07,0-31.83,9.75-31.85,31.76-.04,41.64-.04,83.27,0,124.91,.02,22,9.81,31.78,31.85,31.78,210.91,.02,421.82,.02,632.73,0,22.04,0,31.84-9.79,31.86-31.78,.04-40.95,.02-81.91,0-122.86,0-24.77-9.07-33.81-33.91-33.81-104.77,0-209.54,0-314.32,0Z"/>
  <path class="cls-2" d="M1010.2,13.66c9.14,4.37,19.14,7.54,27.23,13.36,17.01,12.25,25.95,29.61,25.96,50.8,.08,192.51,.09,385.03,.01,577.54-.02,35.61-28.68,64.6-64.22,64.82-47.1,.29-94.21,.26-141.31,.02-36.13-.19-64.74-29.13-64.75-65.34-.06-191.15-.04-382.29-.02-573.44,0-31.98,16.78-55.21,47.1-65.49,1.45-.49,2.73-1.5,4.09-2.27,55.31,0,110.61,0,165.92,0Zm12.3,353.97c0-93.87,.01-187.73,0-281.6,0-22.57-8.96-31.41-31.76-31.42-41.64-.02-83.28-.02-124.93,0-22.71,.01-31.76,8.94-31.76,31.41-.01,187.39-.02,374.78,0,562.17,0,21.9,9.08,30.86,31.24,30.88,41.3,.04,82.6,.02,123.9,0,24.89,0,33.31-8.33,33.31-32.94,0-92.84,0-185.68,0-278.52Z"/>
  <path class="cls-1" d="M1065.29,936.03c-2,19.56-1.48,39.81-6.52,58.56-12.03,44.82-58.76,73.92-104.03,67.39-48.07-6.93-83.56-47.01-83.79-94.76-.11-21.49-.13-42.99,.01-64.48,.35-52.28,43.73-94.42,96.93-94.3,52.28,.12,95.16,42.58,95.54,94.66,.08,10.92,.01,21.84,.01,32.75,.62,.06,1.24,.12,1.85,.19Zm-153.18,20.29c-1.45,24.67,6,44.4,27.24,57.01,19.69,11.69,39.84,10.88,58.67-1.87,19.18-13,25.91-32.06,24.09-55.14h-110Zm110.17-41.83c1.39-24.66-6.05-44.39-27.27-57.01-19.28-11.47-39.12-10.91-57.79,1.28-19.79,12.92-26.72,32.21-25.02,55.57h34.52c0-6-.09-11.38,.02-16.77,.25-13.12,8.47-21.62,20.67-21.52,12.14,.11,20.02,8.63,20.23,21.98,.08,5.34,.01,10.69,.01,16.47h34.62Z"/>
  <path class="cls-2" d="M436.77,342.49c.08,11.46-9.26,21.07-20.44,21.04-11.04-.03-20.68-9.94-20.55-21.13,.13-11.05,8.98-19.97,20.11-20.24,11.6-.29,20.79,8.66,20.87,20.32Z"/>
  <path class="cls-2" d="M403.86,518.37c.09,11.41-9.31,21.03-20.51,21-11.18-.03-20.52-9.69-20.4-21.11,.12-10.92,9.15-20.17,19.99-20.48,11.09-.32,20.83,9.27,20.92,20.59Z"/>
  <path class="cls-2" d="M417.21,986.39c-26.62,0-53.24,.1-79.86-.06-10.17-.06-18.1-4.62-21.1-14.6-2.64-8.78-.8-17.33,7.41-22.62,3.8-2.45,8.83-4.16,13.31-4.18,53.92-.28,107.85-.38,161.77-.05,13.39,.08,21.95,9.17,21.74,20.9-.21,11.81-9.75,20.46-23.41,20.55-26.62,.18-53.24,.05-79.86,.05Z"/>
  <path class="cls-2" d="M132.07,868.18c5.1,.01,10.26-.45,15.3,.11,11.11,1.24,18.79,9.85,18.88,20.46,.1,10.95-7.02,19.51-18.49,20.42-10.47,.82-21.09,.8-31.57,.05-11.33-.81-19.1-9.57-19.24-20.04-.15-10.52,8.45-19.84,19.83-20.93,5.06-.49,10.2-.08,15.3-.07Z"/>
  <path class="cls-2" d="M457.57,909.98c-5.09-.24-10.22-.13-15.26-.8-10.61-1.41-17.46-8.83-17.94-18.85-.52-10.66,5.62-20.18,16.25-21.33,12.06-1.31,24.48-1.24,36.54,.1,9.96,1.11,16.78,11.18,16.41,20.52-.4,10.1-7.94,18.35-18.68,19.56-5.7,.64-11.53,.11-17.3,.11,0,.23,0,.46-.01,.7Z"/>
  <path class="cls-2" d="M568.03,868.21c5.1,0,10.26-.47,15.3,.1,10.93,1.23,18.99,10.18,19.09,20.49,.1,10.65-7.39,19.47-18.77,20.36-10.47,.82-21.1,.82-31.58,.06-11.52-.84-18.95-9.36-19.03-20.09-.07-10.83,8.17-19.81,19.69-20.89,5.06-.48,10.2-.08,15.3-.08,0,.02,0,.03,0,.05Z"/>
  <path class="cls-2" d="M676.57,909.42c-5.1,0-10.24,.44-15.28-.09-11.38-1.19-19.18-9.42-19.47-19.92-.28-10.1,7.75-20.03,18.57-20.94,10.8-.91,21.81-.91,32.61,.03,11.06,.96,18.35,10.3,18.12,21.02-.23,10.47-7.25,18.37-18.26,19.66-5.36,.63-10.86,.11-16.29,.11,0,.04,0,.08,0,.12Z"/>
  <path class="cls-2" d="M130.87,986.26c-4.76,0-9.57,.41-14.28-.08-11.36-1.2-19.88-10.58-19.65-21.1,.24-10.48,8.03-19.07,19.42-19.89,10.14-.73,20.42-.76,30.56-.05,12.08,.85,19.51,9.4,19.32,20.72-.18,10.97-8.34,19.45-20.08,20.39-5.07,.41-10.2,.07-15.3,.07,0-.02,0-.04,0-.06Z"/>
  <path class="cls-2" d="M676.85,986.27c-5.1,0-10.25,.42-15.3-.09-11.38-1.14-19.93-10.48-19.75-21.01,.18-10.47,7.97-19.14,19.33-19.97,10.14-.75,20.42-.78,30.56-.08,12.1,.83,19.56,9.33,19.42,20.64-.14,10.99-8.26,19.49-19.98,20.49-4.73,.4-9.52,.07-14.28,.07v-.05Z"/>
  <path class="cls-2" d="M240.83,909.43c-5.1,.01-10.23,.43-15.27-.07-11.31-1.14-19.21-9.4-19.56-19.83-.35-10.23,7.47-20.08,18.37-21.03,10.79-.95,21.79-.93,32.58-.02,11.18,.94,18.35,10.01,18.19,20.88-.16,10.91-7.41,18.77-19.03,19.98-5.04,.53-10.18,.09-15.27,.1Z"/>
  <path class="cls-2" d="M350.27,868.09c4.42,0,8.85-.25,13.25,.05,12.24,.82,20.85,9.52,20.86,20.8,0,11.02-7.84,19.64-19.87,20.42-10.14,.65-20.41,.65-30.53-.15-11.47-.9-18.66-9.36-18.64-20.29,.02-10.82,7.39-19.28,18.64-20.59,5.36-.62,10.86-.11,16.29-.11,0-.05,0-.09,0-.14Z"/>
  <path class="cls-2" d="M240.91,945.02c5.09,0,10.23-.44,15.27,.09,11.58,1.21,18.84,9.14,18.96,20.05,.12,11.23-7.56,20.17-19.29,20.98-10.15,.7-20.43,.73-30.56-.05-11.45-.88-19.68-10.61-19.29-21.27,.39-10.43,8.32-18.64,19.63-19.75,5.05-.49,10.18-.08,15.27-.08,0,.01,0,.03,0,.04Z"/>
  <path class="cls-2" d="M561.32,965.3c.07-11.7,9.19-20.57,20.88-20.29,11.18,.27,20.08,9.14,20.24,20.17,.16,11.05-9.65,21.08-20.65,21.13-11.22,.05-20.53-9.51-20.46-21.01Z"/>
  <path class="cls-2" d="M866.84,559.05c.09-33.56,27.54-61.13,61.14-61.38,34.21-.26,61.93,27.97,61.73,62.85-.2,33.33-28.33,61.1-61.66,60.9-33.95-.21-61.3-28.08-61.21-62.36Zm61.6-19.31c-11.35-.07-20.43,8.59-20.56,19.62-.12,10.95,8.94,19.92,20.2,19.99,11.34,.08,20.43-8.6,20.56-19.64,.13-10.94-8.94-19.9-20.21-19.97Z"/>
  <path class="cls-2" d="M928.78,112c13.3,0,26.59-.15,39.89,.04,12.51,.18,20.91,8.42,21.03,20.16,.11,11.81-8.22,20.56-20.52,20.66-27.27,.22-54.55,.22-81.82,0-12.31-.1-20.62-8.83-20.5-20.66,.11-11.75,8.5-19.98,21.02-20.15,13.63-.19,27.27-.04,40.91-.04Z"/>
  <path class="cls-2" d="M929.11,193.93c12.96,0,25.91-.11,38.87,.03,13.22,.14,21.76,8.33,21.71,20.51-.04,12.16-8.59,20.3-21.88,20.36-26.59,.12-53.18,.15-79.78-.02-12.59-.08-20.99-8.27-21.19-20-.2-12.23,8.29-20.69,21.35-20.85,13.63-.17,27.27-.04,40.91-.04Z"/>
  <path class="cls-2" d="M927.73,316.8c-13.3,0-26.59,.15-39.89-.04-12.51-.19-20.89-8.43-21-20.19-.11-11.82,8.21-20.53,20.53-20.63,27.27-.21,54.55-.21,81.82,0,12.29,.1,20.63,8.86,20.5,20.67-.13,11.74-8.54,19.97-21.05,20.15-13.63,.2-27.27,.04-40.91,.04Z"/>
</svg>