<?xml version="1.0" encoding="UTF-8"?>
<svg id="Camada_1" data-name="Camada 1" xmlns="http://www.w3.org/2000/svg" viewBox="0 0 1080 1080">
  <defs>
    <style>
      .cls-1 {
        fill: #644595;
      }
    </style>
  </defs>
  <path class="cls-1" d="M577.63,821.28h-72.72c-.2,3.5-.53,6.6-.53,9.71-.03,49.46,.06,98.91-.13,148.37-.02,6.18,1.09,10.14,7.03,13.88,16.16,10.17,22.36,28.47,16.97,45.77-5.54,17.82-20.83,29.15-39.29,29.13-18.31-.02-34.03-11.68-39.34-29.18-5.19-17.08,1.71-34.9,17.11-46.19,3.21-2.35,6.91-6.8,6.93-10.31,.39-52.68,.21-105.36,.14-158.04,0-.66-.38-1.33-.82-2.78h-72.3c0,17.24,0,34.31,0,51.39,0,16.49,.05,32.97-.01,49.46-.07,17.37-5.19,22.6-22.33,22.63-30.05,.06-60.11,.02-91.9,.02,0,14.1-.29,27.54,.28,40.94,.1,2.29,3.58,4.85,6,6.56,16.8,11.87,23.36,31.02,16.52,48.92-6.9,18.06-23.56,28.27-43.28,26.5-17.91-1.6-33.51-16.67-35.85-35.95-1.98-16.3,4.4-29.72,18.14-38.61,5.67-3.67,7.35-7.51,7.17-13.85-.42-14.68-.17-29.38-.12-44.08,.06-16.48,5.24-21.61,22.07-21.65,30.08-.06,60.16-.02,91.16-.02v-93.07c-4.7,0-9.89,0-15.07,0-18.63,0-37.27,.05-55.9-.02-13.82-.05-18.82-4.94-18.86-18.54-.07-23.59-.02-47.18-.02-71.47h-93.02c0,10.75,0,21.35,0,31.96,0,20.43,.13,40.86-.05,61.28-.13,14.45-5.9,20.07-20.36,20.19-15.77,.12-31.55-.34-47.29,.31-3.74,.15-8.6,2.81-10.8,5.87-11.65,16.16-28.73,22.92-46.82,17.58-17.29-5.11-28.98-21.05-28.95-39.5,.03-17.88,11.44-33.67,28.21-39.03,17.9-5.73,36.2,1.26,47.67,17.91,1.64,2.38,4.38,5.56,6.72,5.65,13.15,.55,26.34,.26,40.44,.26,0-30.23,0-59.21,0-88.19,0-22.51,3.71-26.23,26.19-26.23,32.21,0,64.41,0,97.33,0v-72.81c-3.3-.21-6.41-.58-9.53-.59-49.45-.04-98.9,.06-148.35-.14-6.29-.03-10.16,1.38-13.8,7.26-9.85,15.88-28.82,22.48-45.82,17.25-17.57-5.41-29.08-21.01-29.06-39.4,.02-18.51,11.35-33.77,29.15-39.25,17.29-5.32,35.22,1.43,46.13,16.78,2.15,3.02,6.04,6.81,9.15,6.84,53.73,.42,107.46,.3,162.02,.3v-72.52c-2.48-.23-5.2-.69-7.93-.69-50.17-.04-100.33,.03-150.5-.12-5.76-.02-9.47,1.05-12.94,6.66-10.07,16.25-28.25,22.64-45.58,17.38-17.93-5.44-29.4-20.63-29.47-39.01-.07-18.46,11.27-34.04,28.82-39.58,16.96-5.36,35.16,1.52,46.35,16.66,2.53,3.42,7.34,7.28,11.14,7.32,51.6,.48,103.2,.32,154.8,.29,1.7,0,3.41-.33,5.6-.56v-72.82c-3.8,0-7.55,0-11.29,0-29.74,0-59.48,.03-89.22-.01-18.21-.02-23.14-4.87-23.16-22.81-.04-30.06-.01-60.12-.01-91.61-13.99,0-27.15-.35-40.25,.3-2.6,.13-5.56,3.72-7.4,6.37-10.97,15.83-29.64,22.78-47.02,17.15-18.41-5.95-29.6-23.05-28.28-43.21,1.13-17.39,14.58-32.44,32.97-36.15,17.25-3.48,31.43,2.68,41.01,16.84,4.35,6.42,8.71,8.02,15.66,7.83,14.32-.39,28.66-.17,43-.1,15.93,.07,21.45,5.41,21.51,21.2,.11,30.42,.03,60.85,.03,92.12h93.02c0-14.21,0-28.76,0-43.31,0-10.03-.14-20.07,.04-30.1,.2-10.97,5.54-16.36,16.58-16.43,24.29-.15,48.57-.05,73.49-.05v-93.08c-10.96,0-21.59,0-32.21,0-20.07,0-40.13,.09-60.2-.03-15.83-.09-21.03-5.49-21.09-21.56-.06-15.41,.37-30.84-.29-46.22-.16-3.72-2.91-8.52-5.97-10.73-16.14-11.65-22.88-28.79-17.5-46.85,5.14-17.25,21.13-28.91,39.56-28.86,17.92,.05,33.56,11.43,38.93,28.3,5.58,17.56-1.38,35.82-16.97,47.2-3.31,2.42-6.13,7.54-6.45,11.62-.87,11.36-.3,22.84-.3,35.9,4.55,0,8.35,0,12.14,0,26.16,0,52.32-.02,78.47,0,18.88,.02,23.72,4.77,23.75,23.36,.04,29.39,.01,58.77,.01,88.16,0,3.86,0,7.71,0,12.16h73.29v-10.14c0-49.1-.12-98.2,.14-147.29,.04-6.74-1.65-10.82-7.68-14.66-15.75-10.03-22.12-29.11-16.59-46.06,5.61-17.2,20.86-28.46,38.68-28.56,18.73-.1,33.95,10.9,39.65,28.65,5.51,17.17-1.16,35.34-16.19,46.41-3.4,2.51-7.26,7.27-7.3,11.03-.47,51.96-.31,103.93-.28,155.89,0,1.37,.29,2.74,.51,4.71h72.71v-18.34c0-46.59-.11-93.18,.12-139.77,.03-6.31-1.47-10.1-7.22-13.79-16.05-10.3-22.2-28.57-16.77-45.86,5.57-17.72,20.92-28.96,39.46-28.9,18.33,.07,33.95,11.77,39.19,29.37,5.09,17.09-2.01,35.11-17.35,46.13-3.19,2.29-6.73,6.84-6.76,10.37-.41,52.32-.26,104.64-.21,156.97,0,1.02,.41,2.03,.78,3.74h72.43c0-15.3,0-30.25,0-45.2,0-19.35-.12-38.71,.05-58.06,.13-14.53,5.77-20.18,20.3-20.27,26.87-.15,53.75-.05,80.62-.05,3.89,0,7.78,0,13.26,0,0-14.22,.29-27.68-.28-41.09-.1-2.28-3.66-4.79-6.09-6.52-16.47-11.7-23.05-30.21-16.81-47.95,6.45-18.35,23.77-29.16,43.79-27.34,17.58,1.6,32.78,16.03,35.55,34.99,2.45,16.77-4.03,30.54-18.08,39.62-5.85,3.77-7.18,7.63-7.02,13.83,.35,13.61,.12,27.23,.11,40.85-.01,20.73-4.21,24.82-25.39,24.85-28.31,.04-56.61,.09-84.92,.16-.69,0-1.38,.29-2.96,.65v92.26c11.56,0,23.59,0,35.61,0,12.18,0,24.37-.08,36.55,.03,12.38,.11,17.62,5.24,17.68,17.54,.11,23.94,.03,47.88,.03,72.5h93.02c0-13.36,0-26.48,0-39.6,0-17.92-.14-35.84,.05-53.76,.15-14.45,5.86-19.99,20.41-20.11,14.69-.11,29.39-.3,44.07,.09,6.95,.18,11.43-1.27,15.63-7.87,9.56-15.03,27.24-20.77,44.2-16.17,15.86,4.3,28.32,18.69,29.82,34.4,1.72,18.03-6.71,33.8-22.32,41.77-18.09,9.24-40.61,3.67-52.1-13.86-3.9-5.95-8-7.93-14.74-7.61-10.68,.5-21.4,.13-33.21,.13-.23,4.59-.56,8.35-.57,12.12-.05,26.52,0,53.04-.04,79.56-.03,17.88-5.01,22.77-23.19,22.8-29.38,.04-58.77,.01-88.15,.01-3.87,0-7.74,0-12.25,0v72.93c3.93,.18,7.42,.47,10.91,.47,48.73,.03,97.47-.08,146.2,.14,6.62,.03,10.85-1.39,14.75-7.51,10.14-15.91,28.95-22.3,45.95-16.94,17.19,5.42,28.67,20.74,28.85,38.5,.19,18.64-10.85,34.15-28.4,39.88-17.16,5.61-35.81-.4-46.11-16.19-3.89-5.96-7.85-7.73-14.61-7.7-49.09,.27-98.18,.15-147.27,.15h-10.21v72.75c3.26,.17,6.38,.47,9.49,.47,49.45,.03,98.9-.07,148.35,.13,6.22,.02,10.13-1.21,13.87-7.08,10.29-16.14,28.53-22.31,45.8-16.92,17.8,5.55,29.09,20.84,29.05,39.34-.04,18.35-11.65,33.97-29.24,39.3-17.06,5.17-34.91-1.82-46.21-17.15-2.49-3.37-7.46-6.94-11.32-6.97-51.6-.45-103.2-.3-154.8-.27-1.39,0-2.77,.28-4.92,.5v72.87c7.11,0,14.15,0,21.19,0,23.65,0,47.3,0,70.95,0,29.33,0,31.32,1.96,31.32,30.79,0,24.01,0,48.02,0,72.03v11.61c13.98,0,26.85,.51,39.62-.36,3.14-.22,6.55-4.53,8.86-7.68,10.58-14.41,28.69-20.94,45.68-16.04,15.72,4.53,28.1,20.17,28.84,36.43,.86,18.63-8.64,33.96-25.33,40.92-17.86,7.44-38.27,1.75-49.09-15-3.97-6.16-8.21-7.57-14.76-7.41-14.68,.35-29.38,.18-44.07,.09-15.24-.1-20.86-5.54-20.93-20.68-.14-26.88-.04-53.76-.04-80.64,0-3.85,0-7.7,0-12.19h-93.02c0,23.51,.02,46.7,0,69.88-.02,15.75-4.51,20.19-20.45,20.21-22.89,.02-45.78,0-69.48,0v92.58c3.58,.16,7.36,.46,11.13,.47,26.52,.04,53.03-.01,79.55,.04,17.47,.03,22.58,5.07,22.65,22.18,.03,9.32,.47,18.66-.1,27.95-.87,14.13,.57,25.24,13.72,35.74,18.3,14.61,15.47,43.01-2.49,58.69-17.05,14.89-44.27,12.46-58.5-5.23-14.78-18.37-11.58-45.39,7.9-58.69,6.91-4.72,9.02-9.75,8.59-17.53-.55-9.99-.13-20.03-.13-31.37-4.32-.19-8.09-.5-11.86-.5-26.87-.04-53.75,.03-80.62-.05-16.51-.05-21.83-5.38-21.87-21.99-.07-33.63-.02-67.27-.02-101.59h-72.79c-.18,3.87-.48,7.35-.49,10.84-.03,48.74,.08,97.48-.14,146.22-.03,6.58,1.29,10.88,7.46,14.79,15.84,10.05,22.24,29.01,16.85,45.97-5.48,17.25-20.72,28.66-38.51,28.82-18.62,.17-34.15-10.92-39.84-28.46-5.59-17.21,.39-35.65,16.2-46.05,5.9-3.88,7.77-7.8,7.73-14.6-.29-49.1-.15-98.2-.15-147.29v-10.5Zm194.83-31V327.1H309.34v463.18h463.13Zm-165.03,237.05c-6.47-4.84-10.52-10.22-14.12-9.93-3.81,.31-7.19,6.01-10.76,9.35,3.56,3.7,6.67,9.52,10.83,10.41,3.1,.67,7.57-5.03,14.04-9.83ZM503.7,89.1c-6.89-4.61-11.58-10.06-14.7-9.27-4.1,1.03-6.95,6.98-10.35,10.81,3.68,3.2,7.25,8.75,11.06,8.91,3.63,.16,7.5-5.3,13.99-10.45Zm506.34,402.96c-4.97,6.35-10.79,10.68-10.2,13.8,.79,4.19,6.53,7.44,10.15,11.09,3.43-3.48,9.2-6.72,9.6-10.52,.38-3.59-4.89-7.78-9.55-14.37ZM87.1,609.71c-7-4.47-11.38-9.48-15.01-8.99-3.83,.52-6.96,6.29-10.39,9.77,3.79,3.46,7.26,9.06,11.47,9.68,3.25,.48,7.42-5.29,13.93-10.46Zm416.63,417.15c-6.85-4.69-11.5-10.19-14.58-9.42-4.14,1.03-7.06,6.91-10.51,10.7,3.65,3.23,7.17,8.79,10.99,9.01,3.6,.21,7.54-5.2,14.09-10.3ZM592.98,74.81c-4.83,6.76-10.03,10.86-9.74,14.52,.31,3.85,5.87,7.27,9.14,10.88,3.65-3.58,9.45-6.73,10.28-10.87,.65-3.24-4.87-7.71-9.68-14.53ZM57.33,506.55c6.81,4.8,10.93,9.96,14.6,9.66,3.85-.31,7.27-5.87,10.87-9.14-3.6-3.64-6.77-9.43-10.92-10.25-3.25-.64-7.71,4.88-14.55,9.73Zm967.24,103.07c-7.03-4.41-11.41-9.35-15.06-8.86-3.81,.51-6.92,6.26-10.33,9.72,3.78,3.46,7.26,9.08,11.45,9.69,3.26,.47,7.42-5.32,13.94-10.55Zm-2.83,221.37l.03-4.37c-3.9-2.69-7.51-6.9-11.77-7.71-6.72-1.28-11.47,3.96-10.28,10.06,.74,3.76,6.38,8.7,10.23,9.09,3.66,.36,7.85-4.5,11.8-7.07ZM272.88,77.64c-1.46,0-2.92,.01-4.37,.02-2.55,3.95-7.39,8.13-7.03,11.8,.38,3.84,5.29,9.48,9.04,10.22,6.1,1.2,11.36-3.55,10.11-10.26-.79-4.26-5.04-7.87-7.74-11.77Zm536.6,24.16c1.46-.05,2.92-.1,4.37-.15,2.43-4.05,7.14-8.39,6.66-12.05-.51-3.83-5.65-9.34-9.41-9.92-6.09-.94-11.22,3.97-9.72,10.65,.95,4.22,5.29,7.67,8.1,11.47ZM72.37,273.78c-5.01,6.69-9.73,10.24-10.22,14.29-.75,6.17,3.88,11.61,10.47,9.94,3.98-1.01,9.12-6.17,9.52-9.92,.37-3.47-4.86-7.55-9.77-14.31Zm937.88,28.97c4.63-6.72,9.18-10.44,9.58-14.57,.62-6.41-4.53-11.28-10.92-9.41-3.9,1.15-8.89,6.57-9.03,10.24-.14,3.58,5.26,7.37,10.37,13.74ZM72.26,843.26c4.97-6.75,10.25-10.8,9.88-14.25-.4-3.78-6.49-10.15-9.24-9.73-4.12,.63-9.49,5.71-10.5,9.83-.72,2.93,4.89,7.4,9.86,14.15Zm212.97,184.08c-6.48-4.9-10.47-10.22-14-9.94-3.69,.3-8.9,5.48-9.95,9.44-1.71,6.51,3.49,11.37,9.78,10.59,4.09-.51,7.66-5.24,14.17-10.1Zm540.45,.6c-6.48-5.24-9.82-10.03-13.86-10.72-6.23-1.07-11.73,3.43-10.35,10.02,.84,4.03,5.8,9.39,9.56,9.98,3.41,.53,7.7-4.59,14.65-9.27Z"/>
  <path class="cls-1" d="M72.37,273.78c4.91,6.76,10.14,10.84,9.77,14.31-.4,3.75-5.55,8.91-9.52,9.92-6.59,1.67-11.22-3.77-10.47-9.94,.49-4.05,5.21-7.6,10.22-14.29Z"/>
  <path class="cls-1" d="M541.48,373.58c54.81,0,109.63-.01,164.44,0,15.28,0,19.96,4.58,19.97,19.58,.02,110.36,.02,220.72,0,331.08,0,14.34-4.87,19.16-19.32,19.16-110.35,.02-220.69,.02-331.04,0-14.53,0-19.41-4.78-19.41-19.06-.03-110.72-.03-221.44,0-332.16,0-13.66,4.99-18.59,18.77-18.6,55.53-.04,111.06-.02,166.59-.02Zm-154.83,339h308.31V404.24H386.65v308.34Z"/>
  <path class="cls-1" d="M644.22,523.23c0-13.59-.12-27.19,.04-40.78,.13-10.87,5.66-16.72,15.21-16.6,9.48,.11,14.74,5.95,14.79,17.04,.11,26.83,.11,53.66,0,80.49-.04,10.86-5.54,17.11-14.69,17.3-9.6,.19-15.23-6.21-15.32-17.73-.1-13.24-.02-26.47-.02-39.71Z"/>
</svg>