<?xml version="1.0" encoding="UTF-8"?>
<svg id="Camada_1" data-name="Camada 1" xmlns="http://www.w3.org/2000/svg" viewBox="0 0 1080 1080">
  <defs>
    <style>
      .cls-1 {
        fill: #644595;
      }
    </style>
  </defs>
  <path class="cls-1" d="M854.12,1066.39c-16.3-4.77-33.21-8.07-48.79-14.55-83.11-34.6-128.36-121.39-109.88-209.6,1.39-6.65,.47-11.11-4.6-16.11-35.19-34.71-70.01-69.8-105.86-105.68-2.86,3.85-5.46,7.22-7.93,10.68-46.08,64.47-92.19,128.93-138.17,193.47-6.05,8.5-13.31,14.85-23.98,15.97-22.23,2.31-38.59-16.14-34.07-38.83,13.82-69.48,27.89-138.92,41.83-208.37,4.03-20.1,7.95-40.22,12.19-61.72-19.14,0-37.22,0-55.29,0-9.96,0-19.91-.04-29.87,0-12.49,.06-21.85-5.45-27.68-16.33-6.06-11.3-5.06-22.58,2.26-32.99,15.4-21.88,31.03-43.6,46.56-65.39,1.18-1.66,2.34-3.34,3.98-5.7-2.02-2.32-3.84-4.67-5.92-6.76-40.52-40.57-81.15-81.03-121.49-121.77-4.61-4.66-8.64-5.96-15.13-4.66C127.63,399.04,31.12,335.33,10.26,231.02c-6.79-33.94-3.77-67.61,8.99-100.04,9.21-23.43,34.25-29.15,52.34-11.69,18.52,17.88,36.37,36.47,54.76,54.49,11.44,11.2,25.94,12.98,38.55,5.41,11.53-6.91,17.37-20.24,13.26-33.73-1.81-5.93-5.71-11.75-10.06-16.28-16.89-17.57-34.45-34.49-51.54-51.87-19.37-19.71-13.7-45.01,12.06-54.78,108.97-41.29,232.13,32.16,247.66,147.45,3.11,23.07,2.11,45.76-2.29,68.51-.64,3.29,.41,8.28,2.64,10.54,34.95,35.45,70.22,70.59,105.44,105.77,.68,.68,1.63,1.08,3.1,2.03,19.79-27.66,39.54-55.22,59.25-82.81,29.12-40.75,58.16-81.56,87.36-122.25,9.39-13.08,22.4-17.69,35.8-13.31,16,5.24,24.6,20,21.12,37.46-17.27,86.6-34.72,173.16-52.07,259.74-.6,2.99-.95,6.04-1.64,10.54,12.52,0,24.37,0,36.21,0,15.79,0,31.59,.18,47.38-.06,12.88-.19,22.69,4.93,28.81,16.2,6.34,11.69,4.97,23.19-2.6,33.89-15.66,22.12-31.48,44.13-47.21,66.2-.96,1.35-1.71,2.85-2.75,4.6,2.26,2.46,4.24,4.79,6.39,6.94,40.53,40.56,81.13,81.05,121.56,121.7,3.94,3.96,7.26,5.47,13.28,4.28,109.7-21.6,205.67,44.78,224.35,154.8,.21,1.24,1.19,2.35,1.81,3.52v45.33c-3.57,13.46-6.37,27.19-10.87,40.33-9.33,27.22-35.17,32.8-55.69,12.46-17.07-16.92-33.94-34.05-51.04-50.95-14.42-14.24-33.05-15.13-45.74-2.44-12.64,12.63-11.75,31.42,2.42,45.77,16.65,16.86,33.54,33.48,50.23,50.3,21.65,21.82,15.69,47.21-13.73,56.99-12.54,4.17-25.55,6.92-38.35,10.32h-45.33ZM449.19,407.26c-3.63-2.64-7.04-4.51-9.7-7.15-39.89-39.72-79.42-79.81-119.64-119.19-13.4-13.12-16.66-26.48-10.47-44.41,23.94-69.36-17.43-142.85-89.22-159.77-5.25-1.24-10.73-1.55-18.65-2.65,53.6,46.81,46.02,103.56,21.35,135.31-19.15,24.65-44.67,36.88-75.74,36.69-31.26-.19-55.2-16.15-76.13-39.67-.43,3.06-.65,3.73-.59,4.39,6.39,76.37,87.32,128.27,161.59,102.85,18.38-6.29,31.88-2.86,45.27,10.81,41.8,42.66,84.35,84.58,126.44,126.96,2.56,2.57,3.64,6.61,6.02,11.14,14.54-20.37,26.08-36.52,39.49-55.3Zm550.12,462.18c-.46-4.25-.58-8.57-1.42-12.74-14.67-73.11-90.72-116.75-161.44-92.18-16.93,5.88-30.09,3.07-42.75-9.8-42.37-43.05-85.35-85.5-127.93-128.35-2.54-2.56-3.56-6.63-5.91-11.21-14.81,20.78-26.49,37.18-39.29,55.15,3.59,2.77,6.89,4.78,9.54,7.43,39.87,39.74,79.39,79.82,119.6,119.21,13.41,13.14,16.54,26.55,10.36,44.44-22.94,66.43,15,138.67,82.33,158.03,7.41,2.13,15.22,2.89,22.84,4.29-52.49-47.72-43.66-108.8-13.37-141.69,16.28-17.67,36.58-27.87,60.28-29.98,35.19-3.13,62.86,12.23,87.16,37.4ZM598.42,308.8c-.51-.36-1.02-.71-1.52-1.07-62.02,86.84-124.04,173.69-187.19,262.11,21.87,0,41.36-.05,60.85,.01,23.05,.07,37.07,16.87,32.62,39.27-5.01,25.17-10.34,50.28-15.37,75.44-5.66,28.28-11.14,56.59-16.7,84.89,.51,.22,1.01,.43,1.52,.65,62.02-86.84,124.04-173.68,187.19-262.11-21.54,0-40.68,.03-59.82,0-25.01-.04-38.13-16.64-33.15-41.26,10.65-52.62,21.06-105.29,31.57-157.94Z"/>
</svg>