<?xml version="1.0" encoding="UTF-8"?>
<svg id="Camada_1" data-name="Camada 1" xmlns="http://www.w3.org/2000/svg" viewBox="0 0 1080 1080">
  <defs>
    <style>
      .cls-1 {
        fill: #644595;
      }
    </style>
  </defs>
  <path class="cls-1" d="M16.56,965.84c7.28-17.98,20.78-23.83,39.73-23.03,30.61,1.28,59.09,9,85.32,24.42,33.12,19.46,68.23,24.5,105.05,14.76,11.97-3.17,23.37-9.16,34.45-14.96,63.19-33.11,126.45-33.74,189.12,.42,46.62,25.42,92.15,25.61,138.81,.19,63.01-34.32,126.84-34.44,189.88-.07,46.62,25.42,92.54,26.05,138.69-.21,28.07-15.97,58.07-24.42,90.45-24.49,20.83-.04,34.77,11.63,35.07,29.95,.31,18.93-13.34,31.6-34.55,31.75-19.77,.14-38.62,4.19-55.64,14.28-38.03,22.53-78.73,32.6-122.96,28.84-26.21-2.23-50.87-9.22-73.42-22.52-30.57-18.02-63.17-25.73-97.87-18.13-15.62,3.42-30.91,10.2-45.14,17.75-51.68,27.41-104.94,30.6-159.82,12.29-10.87-3.63-21.21-9.19-31.31-14.73-44.06-24.21-88.46-25.06-132.18-.42-36.52,20.58-75.07,28.91-116.62,25.75-25.87-1.97-50.12-9.01-72.6-21.73-23.47-13.27-47.83-22.2-75.41-21.69-14.46,.26-22.93-9.98-29.06-22.06v-16.35Z"/>
  <path class="cls-1" d="M16.56,788c13.19-26.48,36.77-21.96,59.3-19.46,23.63,2.63,45.63,10.79,66.02,22.83,32.76,19.34,67.6,24.42,104.1,14.82,12.31-3.24,24.01-9.41,35.41-15.34,63.28-32.91,126.53-33.48,189.19,.77,46.25,25.28,91.58,25.57,137.88,.31,63.76-34.79,128.05-34.55,191.79,.24,45.54,24.85,90.74,25.42,135.94-.14,29.68-16.79,61.3-25.85,95.46-25.13,25.01,.52,39.6,25.17,27.43,46.05-5.97,10.25-15.35,15.85-26.97,15.57-25.02-.59-47.22,7.45-68.87,19.09-62.84,33.79-126.36,34.36-189.06,.28-47.41-25.77-93.59-26.17-140.64,.25-12.63,7.09-26.24,13.42-40.19,17.03-50.2,13.02-99.21,9.93-145.26-15.9-23.92-13.42-48.69-21.92-76.62-20.73-19.4,.83-37.66,4.64-54.77,13.88-23.68,12.79-47.66,24.57-74.98,27.87-41.9,5.06-82.3,1.23-119.69-19.71-23.84-13.35-48.3-22.83-76.3-22.23-14.44,.31-22.89-10.03-29.18-21.96v-18.4Z"/>
  <path class="cls-1" d="M727.1,694.54c-6.82-2.47-11.75-3.8-16.25-6.02-4.24-2.09-8.59-4.53-11.9-7.81-16.66-16.55-34.63-18.18-53.89-5.2-2.95,1.99-6.07,5.3-6.91,8.56-2.7,10.5-4.41,21.26-6.42,31.94-3.68,19.59-14.73,29-34.41,29.02-38.49,.04-76.97,.06-115.46-.02-19.55-.04-30.1-8.83-34.1-28.06-.69-3.32-1.38-6.65-1.98-9.99-5.39-30.09-5.33-30.22-34.07-41.14-2.79-1.06-7.26-.35-9.9,1.26-10.15,6.2-19.78,13.25-29.77,19.71-14.91,9.64-29.14,8.57-41.75-3.86-28.13-27.74-56.08-55.66-83.81-83.79-12.93-13.12-13.83-26.87-3.65-42.5,6.31-9.69,13.19-19.03,19.09-28.96,1.71-2.87,1.36-7.25,1.13-10.88-.14-2.21-2.44-4.22-2.78-6.48-3.01-19.79-16.72-25.62-34.25-26.88-4.38-.32-8.71-1.41-13.04-2.22-19.39-3.62-28.75-14.83-28.77-34.63-.03-38.49-.04-76.97,.03-115.46,.03-19.08,8.83-29.96,27.23-33.72,10.64-2.18,21.31-4.26,32.01-6.13,5.8-1.01,8.7-4.04,11.78-9.37,10.56-18.32,10.21-34.52-5.52-49.63-2.63-2.53-4.21-6.16-6.27-9.28-11.18-17.01-10.04-30.31,4.37-44.83,26.87-27.07,53.84-54.05,80.92-80.92,14.44-14.33,27.83-15.46,44.84-4.23,9.08,6,17.82,12.59,27.27,17.92,3.37,1.9,8.39,1.09,12.66,1.08,1.55,0,3.05-1.65,4.67-1.89,20.78-3.09,26.35-17.67,27.77-35.87,.47-6.03,2.01-12.07,3.72-17.91,4.27-14.53,14.97-22.55,30.12-22.59,40.19-.09,80.38-.1,120.56,.03,16.21,.05,27.8,9.55,31.23,25.38,2.3,10.62,4.78,21.25,6.05,32.01,.93,7.93,5.57,10.54,11.77,14.37,17.83,11.03,31.41,6.08,47.1-5.59,28.99-21.57,37.39-19.91,62.71,5.43,23.84,23.85,47.71,47.65,71.49,71.56,15.78,15.86,17.03,28.84,4.82,47.25-1.5,2.27-2.72,4.85-4.63,6.71-16.21,15.89-18.15,33.3-5.38,51.98,2.34,3.43,6.02,7.14,9.78,8.18,10.44,2.88,21.24,4.44,31.9,6.49,18.77,3.6,28.27,14.91,28.29,34.01,.04,38.83,.05,77.65-.03,116.48-.04,18.78-9.08,29.51-27.71,33.36-8.98,1.86-17.89,4.82-26.94,5.35-10.66,.63-13.85,6.83-18.5,15.2-8.75,15.74-6.65,28.15,5.04,40.71,4.35,4.67,7.52,10.5,10.89,16.01,8.19,13.4,7.58,27.32-3.32,38.47-28.8,29.46-57.9,58.66-87.56,87.26-5.43,5.23-14.06,7.13-20.27,10.11ZM307.43,207.23c6.45,9.67,13.14,19.52,19.64,29.47,6.69,10.25,6.83,20.78,1.96,31.99-8.11,18.64-15.96,37.4-23.36,56.34-4.61,11.78-12.3,19.22-24.82,21.6-9.67,1.84-19.38,3.6-28.89,6.06-2.44,.63-6.01,3.75-6.06,5.79-.44,21.74-.27,43.49-.27,65.91,11.18,2.16,21.8,4.29,32.44,6.26,14.8,2.74,23.69,11.31,28.71,25.63,6.04,17.24,12.95,34.27,20.83,50.76,6.37,13.34,6.45,25.24-2.02,37.37-6.37,9.12-12.39,18.48-18.23,27.24,17.01,17.03,33.36,33.4,50.23,50.27,9.47-6.35,19.27-13.02,29.18-19.52,9.78-6.43,19.97-7.51,30.97-2.8,19.62,8.41,39.34,16.58,59.16,24.52,10.64,4.26,17.45,11.56,19.94,22.67,2.16,9.61,4.45,19.23,5.73,28.96,.78,5.93,2.76,8.12,8.9,8.01,18.72-.35,37.47-.39,56.19,.02,6.3,.14,8.25-2.57,9.07-8.09,1.24-8.39,2.97-16.71,4.54-25.05,2.63-13.9,10.58-22.74,24.04-27.72,18.1-6.7,36.04-13.97,53.58-22.01,12.31-5.64,23.49-5.64,34.69,1.85,9.6,6.42,19.19,12.86,27.98,18.75,16.99-16.94,33.56-33.46,50.52-50.38-6.21-9.3-12.9-19.13-19.41-29.09-6.43-9.85-7.12-20.04-2.39-30.99,8.33-19.29,16.38-38.7,24.13-58.23,4.37-11.02,11.73-18.08,23.35-20.5,9.97-2.08,20.05-3.69,29.91-6.18,2.46-.62,6.07-3.79,6.11-5.85,.45-21.74,.28-43.49,.28-66.01-10.48-2.05-20.38-4.28-30.39-5.87-15.15-2.4-25.08-10.16-30.41-24.99-6.42-17.84-13.61-35.46-21.6-52.65-5.87-12.64-5.98-24.04,1.89-35.56,6.47-9.47,12.76-19.05,18.95-28.31-16.96-16.98-33.31-33.35-50.13-50.2-9.67,6.46-19.48,13.1-29.38,19.6-10.17,6.68-20.69,7.32-31.96,2.43-18.97-8.22-38.03-16.22-57.28-23.77-11.43-4.48-18.64-12-21.05-24.05-2-9.99-3.74-20.04-6.17-29.92-.55-2.23-3.44-5.5-5.3-5.54-22-.39-44.01-.25-66.55-.25-2.14,11.22-4.21,21.51-6.04,31.84-2.61,14.78-10.9,23.96-25.22,29.07-17.53,6.26-34.86,13.27-51.69,21.21-13.41,6.33-25.33,6-37.35-2.5-8.88-6.27-18.01-12.18-26.72-18.04-16.72,16.79-33.04,33.18-50.23,50.45Z"/>
  <path class="cls-1" d="M540.25,228.11c88.39,.13,161,73.09,160.86,161.64-.14,88.31-73.26,161.08-161.67,160.9-88.33-.18-161.02-73.25-160.86-161.72,.16-88.4,73.1-160.96,161.66-160.83Zm98.67,161c-.22-55.04-44.89-99.41-99.57-98.9-54.78,.52-98.3,44.14-98.61,98.87-.31,54.78,44.1,99.3,99.1,99.31,55.04,.02,99.3-44.34,99.08-99.29Z"/>
</svg>