<?xml version="1.0" encoding="UTF-8"?>
<svg id="Camada_1" data-name="Camada 1" xmlns="http://www.w3.org/2000/svg" viewBox="0 0 595.28 429.79">
  <defs>
    <style>
      .cls-1 {
        fill: #27404e;
      }

      .cls-2 {
        fill: #8c5f9d;
      }
    </style>
  </defs>
  <path class="cls-1" d="M370.61,61.94c11.46-4.67,22.5-6.1,30.56,3.94,8.81,10.97,6.23,21.18-3.67,30.8-5.8,5.64,.58,8.35,4.62,9.92,27.86,10.8,28.86,13.34,13.35,40.37,11.2,.16,22.68-.84,27,12.69,4.34,13.63-3.13,22.24-11.9,30.38-47.74,44.29-91.81,93.28-154.37,118.47-18.28,7.36-38.85,9.77-54.03,24.04-6.66,6.26-9.71,.32-12.77-3.95-21.17-29.54-42.14-59.21-63.29-88.77-4.34-6.07-7.3-13.5-2.08-18.8,7.11-7.21,11.59,1.69,16.54,5.6,24.77,19.51,57.66,12.77,71.41-15.05,9.72-19.68,24.34-35.71,37.82-52.61,14.4-18.06,22.14-40.2,37.72-57.84,8.78-9.94,6.11-25.16-.29-36.71-6.04-10.89-2.08-15.58,6.99-20.55,8.62-4.72,16.38-11,24.97-15.77,15.39-8.54,30.76,.68,31.41,18.48,.17,4.69,.03,9.4,.03,15.34Z"/>
  <path class="cls-1" d="M143.62,420.86c-4.31-1.4-9.7-2.64-14.65-4.85-32.22-14.45-64.44-28.91-96.47-43.77-21.17-9.82-25.44-28.58-9.23-44.94,26.89-27.12,55.02-53.04,82.2-79.88,5.88-5.81,9.01-6.45,14.02,.69,25.9,36.87,51.88,73.7,78.55,110.01,5.38,7.32,7.51,11.43-.3,18.36-11.81,10.48-22.61,22.12-33.51,33.58-5.47,5.75-11.95,9-20.61,10.8Z"/>
  <path class="cls-2" d="M457.36,420.94c-16.78-.15-23.09-10.4-30.92-17.31-35.24-31.11-33.77-30.37-4.14-66.86,20.57-25.34,37.67-53.57,55.24-81.19,7.7-12.11,12.51-11.52,21.99-1.69,23.31,24.15,47.7,47.27,71.9,70.55,8.75,8.42,16.62,16.94,12.35,30.28-3.81,11.92-13.8,13.74-24.56,18-21.41,8.49-43.23,16.79-62.79,30.11-12.76,8.69-28.32,13.28-39.06,18.11Z"/>
  <path class="cls-2" d="M176.98,89.49c-8.35-26.98-4.15-33.72,23.58-36.87,3.55-.4,5.91-.11,7.94-4.09,6.81-13.35,12.65-3.35,15.2,2.33,11.39,25.36,35.41,29.59,58.88,37.92-5.89,4.4-6.82,14.43-17.4,14.98-7.97,.41-5.52,4.7-4.29,9.87,2.89,12.15,1.3,22.48-14.76,22.63-10.51,.1-12.01,7.12-12.49,15.22-.76,13.01-4.45,23.81-19.35,26.8-10.28,2.06-2.6,8.76-2.67,13.01-.17,10.09-4.14,16.8-13.36,21.09-9.03,4.2-17.87,1.57-22.35-4.98-7.18-10.49-17.47-16.81-26.28-25.1-18.01-16.94-16.76-29.88,4.35-42.1,4.92-2.85,10.03-1.59,5.29-10.38-13.47-25-9.91-31.95,17.71-40.34Z"/>
  <path class="cls-2" d="M329.77,306.45c50.56-22.44,80.71-66.89,120.66-100.13,8.57,26.86,6.96,25.91-8.83,52.77-12,20.42-28.1,37.69-39.86,58.16-7.36,12.81-17.67,20.91-33.79,10.34-11.07-7.26-25.48-8.67-38.17-21.15Z"/>
  <path class="cls-2" d="M307.99,19.98c-13.18,9.19-25.95,19.04-39.67,27.32-9.03,5.45-27.91-6.75-29.78-17.38-1.18-6.69,3.62-6.79,7.09-7.27,20.06-2.74,40.18-5.03,60.28-7.48,.69,1.6,1.39,3.2,2.08,4.8Z"/>
</svg>