<?xml version="1.0" encoding="UTF-8"?>
<svg id="Camada_1" data-name="Camada 1" xmlns="http://www.w3.org/2000/svg" viewBox="0 0 1080 1080">
  <defs>
    <style>
      .cls-1 {
        fill: #644595;
      }
    </style>
  </defs>
  <path class="cls-1" d="M1073.65,703.73c-8.94,19.45-24.3,25.71-45.26,25.22-44.01-1.02-88.06-.31-133.1-.31-1.4,4.89-2.75,9.73-4.16,14.55-36.91,126.39-120.09,208.62-245.03,244.66-132.93,38.34-253.24,8.94-357.92-82.31-3.44-3-8.1-4.86-12.49-6.44-12.03-4.33-24.31-7.96-36.31-12.35-22.13-8.09-31.51-28.85-21.08-50.23,6.11-12.52,5.1-22.08-.92-34.49-9.9-20.42-17.2-42.19-24.36-63.79-2.57-7.75-5.67-9.87-13.56-9.8-44.04,.42-88.09,.23-132.14,.19-25.81-.02-39.21-13.32-39.23-38.83-.01-9.71-.06-19.42,.01-29.13,.15-20.74,14.29-35.28,35.06-35.8,10.71-.27,21.43-.05,33.61-.05,0-11.16-.06-21.77,.01-32.38,.14-21.38,14.37-35.94,35.64-36.28,11.75-.19,23.5-.03,35.17-.03,4.51-19.81,8.12-39.12,13.36-57.96,10.07-36.22,25.71-70.1,46.09-101.69,3.53-5.48,3.57-8.86-1.36-13.14-5.49-4.75-10.58-10.02-15.45-15.43-14.23-15.82-14.49-37.18,.25-52.6,18.69-19.54,37.85-38.67,57.36-57.41,15.66-15.05,37.3-14.71,53.38,0,5.11,4.68,10.14,9.51,14.73,14.68,4.06,4.57,7.3,5.62,13.1,1.96,14.24-8.98,29.09-16.98,46.39-26.92-20.36,0-38.08,.15-55.81-.04-17.94-.2-31.26-10.05-35.58-26.24-.96-3.61-1.12-7.52-1.14-11.29-.1-20.81-.09-41.62-.04-62.43,.05-23.97,13.89-38.28,37.94-38.47,34.68-.27,69.36,.06,104.04-.24,4.56-.04,9.97-1.07,13.53-3.64,41.61-30.11,87.28-34.4,136.59-25.31,73.11,13.47,146.61,24.82,219.95,37.05,47.08,7.85,94.21,15.38,141.19,23.75,8.24,1.47,13.61,.21,19.08-5.91,16.72-18.7,37.12-28.62,62.84-24.37,25.04,4.14,41.89,18.48,51.49,41.71,1.43,3.45,2.75,6.95,4.12,10.42V503.94c-4.41,8.87-7.62,18.64-13.45,26.44-24.66,32.97-70.5,35.22-100.86,5.03-8.96-8.91-17.25-16.99-29.96-12.11,2.96,33.9,5.89,67.47,8.87,101.51,29.38,0,59.21,.82,88.97-.28,21.14-.78,37.09,5.36,46.44,25.1v54.11Zm-173.48-79.5c9.71-131.4-67.22-288.95-228.91-352.34-143.11-56.11-297.12-9.79-379.42,77.37,31.78,31.81,63.55,63.6,95.27,95.35,74.96-63.11,159.18-80.77,249.32-37.87,89.6,42.64,129.63,118.5,128.32,217.49h135.42Zm-117.01,105.03c-2.81-.31-4.18-.58-5.54-.59-127.63-.02-255.26-.08-382.89,.25-3.27,0-8.09,3.44-9.53,6.52-10.97,23.5-20.97,47.46-31.98,70.94-3.25,6.92-1.72,10.84,3.22,15.91,103.75,106.55,278.28,102.69,376.86-8.57,21.77-24.56,38.54-52.12,49.86-84.46Zm122.39-274.95c3.23,8.65,6.88,16.56,9.06,24.86,1.77,6.72,5.11,9.29,11.69,8.22,23.76-3.87,43.34,2.59,57.26,23.12,.57,.84,1.45,1.48,2.22,2.18,9.89,8.95,21.38,11.7,33.66,6.66,12.67-5.2,19.29-15.2,19.28-29.26-.03-104.73-.04-209.46,0-314.19,0-14.1-6.79-23.95-19.35-29.26-12.37-5.24-23.84-2.18-33.53,6.91-6.82,6.41-13.69,12.84-19.8,19.9-4.76,5.51-9.78,6.19-16.54,5.03-56.24-9.65-112.53-19-168.81-28.41-73.34-12.26-146.74-24.11-219.99-36.89-35.66-6.22-69-2.92-98.88,18.92-3.21,2.35-6.08,7.48-6.18,11.4-.57,23.22-.31,46.46-.24,69.69,0,2.56,.56,5.12,.92,8.22,11.29-2.01,21.71-3.87,32.19-5.73,.19-2.81,.38-4.86,.45-6.91,1.41-42.73,37.18-71.08,79.23-63.47,49.34,8.92,98.8,17.14,148.19,25.74,66.42,11.57,132.89,22.84,199.21,34.96,34.7,6.34,54.98,31.08,55.36,66.27,.41,37.79,.2,75.6,.05,113.4-.06,16.77-4.72,32.06-15.83,45.08-12.91,15.13-29.89,21.79-49.64,23.55Zm132.73,206.2H43.67v32.27h994.61v-32.27ZM524.63,212.64c8.06,0,15.39-.73,22.53,.13,29.81,3.58,60.28,4.77,89.21,12.01,108.48,27.17,190.5,90.68,247.62,186.64,1.53,2.56,3.29,5.9,5.74,6.86,21.23,8.39,45.96-7.68,46.28-30.69,.54-38.82,.41-77.65,.02-116.47-.17-16.92-10.03-27.97-26.45-31.2-9.15-1.8-18.42-3.02-27.61-4.62-81.39-14.16-162.78-28.33-244.16-42.52-25.2-4.39-50.34-9.09-75.57-13.26-22.78-3.76-38.77,10.05-37.6,33.11Zm-259.83,163.41c-58.97,72.12-87.58,154.35-83.97,248.75h12.25c35,0,70,0,104.99,0,16.23,0,18.63-2.17,19.05-19.1,.81-32.58,7.13-63.92,21.75-93.16,6.92-13.84,15.22-26.99,22.63-40-31.75-31.68-63.58-63.44-96.7-96.5Zm177.23,162.83c22.55-30.87,53.65-49.69,93.08-51.09,48.4-1.73,85.28,19.57,110.65,60.89,1.78,2.9,4.87,7.03,7.44,7.1,22.69,.56,45.4,.32,68.41,.32-17.71-68.87-85.76-136.58-180.22-136.83-70.89-.19-156.54,53.45-166.02,100.17,21.88,6.39,43.54,12.71,66.66,19.45Zm-123.85,346.26c1.68,1.52,3.13,2.97,4.71,4.26,88.01,71.8,188.44,95.69,298.06,69.48,115.74-27.68,195.3-98.68,233.4-213.19,1.76-5.3,2.68-10.88,4.16-17.04h-37.45c-36.08,102.32-104.41,170.83-209.6,197.07-105.08,26.21-197.58-2.42-277.37-75.44-5.54,12.15-10.66,23.38-15.9,34.87Zm272.33-260.33c9.87,0,18.51-.37,27.1,.12,6.64,.38,8.15-2.89,8.67-8.57,3.19-35.36-15.92-69.61-47.76-85.19-32.35-15.83-71.26-9.95-97.05,15.4-21.72,21.36-29.6,47.37-24.63,77.65h33.82c-3.19-30.4,3.59-48.4,23.08-60.13,18.25-10.98,37.12-11.16,54.86,.52,21.18,13.94,27.63,34.36,21.91,60.2ZM419.73,144.73h-101.28v67.34h101.28v-67.34Zm-69.98,583.91c-12.82,0-23.93,.57-34.94-.19-8.11-.56-12.15,2.07-15.41,9.7-14.51,33.97-29.75,67.63-44.72,101.4-1.9,4.28-3.74,8.59-5.9,13.55,5.99,1.99,10.87,3.61,15.74,5.24q24.05,8.02,34.23-14.74c16.81-37.79,33.55-75.62,51-114.97Zm70.86-159.33c-11.63-3.91-22.59-7.87-33.74-11.13-2.28-.66-7,.55-7.78,2.21-9.72,20.82-18.91,41.87-28.9,64.36,15.17,0,28.55,.19,41.92-.21,2-.06,4.79-2.49,5.73-4.52,7.67-16.55,14.99-33.26,22.77-50.72Zm308,55.02v-32.56h-67.32v32.56h67.32ZM289.74,296.7c1.5,.34,3,.67,4.49,1.01-4.25-3.46-9.04-6.43-12.61-10.48-5.11-5.8-8.74-5.76-14.18-.09-15.83,16.49-32.23,32.43-48.34,48.66-1.83,1.84-3.19,4.14-4.74,6.19,6.64,6.12,12.62,11.63,15.63,14.4,19.7-19.68,39.72-39.68,59.75-59.69ZM112.55,591.62v32.44h32.22v-32.44h-32.22Zm130.95,187.19c8.06-18.27,14.83-33.63,21.85-49.54h-39.76c5.86,16.2,11.33,31.34,17.91,49.54Zm314.1-170.53c.12-9.22-6.82-16.61-15.99-17-9.6-.42-17.36,6.92-17.49,16.53-.12,9.26,6.78,16.57,15.98,16.94,9.68,.39,17.37-6.85,17.5-16.47Z"/>
  <path class="cls-1" d="M1073.65,649.62c-9.35-19.74-25.3-25.88-46.44-25.1-29.76,1.1-59.59,.28-88.97,.28-2.97-34.04-5.91-67.6-8.87-101.51,12.71-4.88,21,3.2,29.96,12.11,30.36,30.19,76.2,27.94,100.86-5.03,5.83-7.8,9.04-17.57,13.45-26.44v145.68Z"/>
</svg>