<?xml version="1.0" encoding="UTF-8"?>
<svg id="Camada_1" data-name="Camada 1" xmlns="http://www.w3.org/2000/svg" viewBox="0 0 1080 1080">
  <defs>
    <style>
      .cls-1 {
        fill: #644595;
      }
    </style>
  </defs>
  <path class="cls-1" d="M1080,193.89v46.42c-.89,3.99-1.9,7.96-2.64,11.97-22.57,124.02-141.85,201.24-263.37,170.25-6.34-1.62-10.34-.33-14.8,4.19-35.06,35.53-70.35,70.84-105.54,106.24-1.7,1.71-3.18,3.65-4.66,5.37,.52,.98,.73,1.7,1.19,2.17,34.9,35.19,69.75,70.44,104.94,105.33,2.25,2.23,7.58,3.04,10.93,2.24,29.38-7.05,58.99-9.16,88.81-4.2,117.57,19.53,196.95,127.95,181.26,245.47-16.66,124.75-143.43,211.8-266.1,181.01-118.01-29.62-188.16-144.41-160.3-262.67,1.58-6.7,.01-10.79-4.73-15.48-26.26-25.94-52.19-52.2-78.16-78.44-8.85-8.95-17.46-18.13-25.73-26.74-2.2,.89-2.99,.97-3.43,1.41-38.23,38.32-76.52,76.6-114.46,115.21-2.26,2.3-2.97,7.64-2.26,11.12,6.1,30.02,6.65,60.04-.32,89.87-23.2,99.39-102.56,164.38-205.14,167.96-47.84,1.67-89.98-16.63-131.98-38.41,3.35-3.5,5.93-6.31,8.63-9.01,32.05-32.08,64.07-64.2,96.21-96.18,8.15-8.11,13.53-17.24,11.39-29.05-2.1-11.55-8.75-20.15-20.05-23.68-11.89-3.72-22.8-1.27-31.94,7.9-33.26,33.36-66.61,66.63-99.95,99.9-2.37,2.36-4.95,4.51-9.73,8.83-11.1-28.42-21.81-54.94-31.72-81.75C3.16,902.43,2.07,892.93,0,883.79c0-16.17,0-32.35,0-48.52,.68-1.53,1.77-3,1.99-4.6,16.86-126.04,140.29-209.22,263.4-177.31,6.42,1.66,10.72,.87,15.66-4.18,34.68-35.41,69.77-70.42,104.69-105.6,1.87-1.88,3.4-4.1,6.33-7.67-34.8-34.21-69.03-68.06-103.67-101.51-2.48-2.39-8.16-3.23-11.8-2.39-29.42,6.78-59.05,9.05-88.84,3.84C67.29,414.76-11.07,304.9,8.32,184.71,27.44,66.23,144.46-15.97,261.54,6.83c123.96,24.15,201.54,143.9,172.05,266.04-1.47,6.08-.33,9.66,3.84,13.82,32.63,32.49,65.07,65.18,97.6,97.78,1.68,1.68,3.66,3.07,4.23,3.54,39.6-38.87,78.79-77.19,117.63-115.88,2.23-2.22,2.71-7.61,2.03-11.14-4.88-25.06-6.22-50.2-2.41-75.45C675.6,59.23,798.36-22.09,921.91,10.91c25.59,6.83,49.73,19.11,74.53,28.88,.12,1.39,.24,2.77,.36,4.16-3.07,2.36-6.44,4.4-9.16,7.11-32.63,32.5-65.24,65.02-97.69,97.69-13.16,13.25-13.73,30.59-1.93,43.4,12.15,13.19,31.13,12.7,45.71-1.76,32.7-32.42,65.16-65.09,97.74-97.64,2.6-2.59,5.37-5.01,10.06-9.37,11.06,27.24,21.81,52.28,31.28,77.79,3.84,10.36,4.87,21.77,7.18,32.71ZM68.92,232.98c1.89,48.34,28.18,94.51,81.38,123.58,45.62,24.92,92.72,24.06,139.78,3.17,6.1-2.71,10.51-3.96,16.45,2.04,137.37,138.57,274.99,276.87,412.72,415.08,4.72,4.73,5.43,8.45,2.72,14.51-9.1,20.33-14.87,41.65-15.3,64.05-1.83,95.76,82.28,169.46,177.17,155.4,61.25-9.07,111.9-55.09,126.36-114.81,14.79-61.07-8.16-125.38-58.82-161.29-49.81-35.32-103.15-38.83-158.54-14.27-7.25,3.21-11.57,2.27-17.18-3.38-136.68-137.76-273.53-275.35-410.56-412.76-5.65-5.66-6.51-10.03-3.28-17.18,13.49-29.87,17.82-61.1,11.94-93.52-14.18-78.22-85.48-132.89-164.48-126.17-79.15,6.73-140.29,73.61-140.37,165.57Zm367.59,351.93c-45.83,45.34-91.74,90.39-137.09,136.01-7.01,7.05-12.41,8.64-21.37,4.17-26.8-13.38-55.63-18.01-85.03-13.77-71.54,10.32-123.26,65.73-129.44,137.43-.75,8.67-.1,17.46-.1,26.19,1.33,.44,2.66,.88,4,1.32,12.86-13.41,25.19-27.37,38.68-40.11,30.09-28.43,74.64-33.38,110.23-13.08,53.06,30.28,63.47,101.39,21.09,146.48-11.88,12.64-24.96,24.16-37.48,36.2,.73,.93,1.46,1.86,2.19,2.79,50.95,2.5,94.22-14.65,126.34-54.93,36.22-45.43,42.15-96.64,22.32-150.82-3.3-9.01-2.67-14.77,4.57-21.92,44.03-43.47,87.47-87.54,131.09-131.43,2.62-2.64,5.15-5.37,7.29-7.61-19.74-19.62-38.62-38.39-57.26-56.92ZM881.07,71.16c-1.04-1.33-2.08-2.66-3.12-3.99-54.77-1.93-100.17,17.45-132.23,62.82-30.99,43.85-35.34,92.18-16.88,142.22,3.9,10.57,2.18,16.64-5.62,24.33-43.54,42.94-86.43,86.52-129.71,129.73-2.68,2.67-6.7,4-9.49,5.6,21.99,21.71,41.12,40.59,61.65,60.86,1.74-2.19,3.87-5.46,6.56-8.17,39.83-40.19,80.49-79.59,119.21-120.82,13.33-14.19,23.23-15.95,41.44-8.69,94.39,37.64,196.32-27.56,203.62-128.91,.6-8.34,.08-16.77,.08-25.15-1.24-.34-2.47-.68-3.71-1.02-12.97,13.3-25.39,27.18-39.01,39.77-24.68,22.8-53.96,30.86-86.7,22.53-68.21-17.35-93.96-99.4-47.52-152.28,12.43-14.15,27.54-25.95,41.42-38.82Z"/>
  <path class="cls-1" d="M860.54,949.02c-48.96-.09-89.73-40.77-90.06-89.85-.33-49.22,41.24-90.77,90.51-90.44,49.34,.33,89.82,40.73,90.03,89.83,.2,49.34-41.01,90.55-90.47,90.46Zm.07-116.23c-14.81,.04-25.8,10.93-25.95,25.71-.15,14.85,11.73,27.04,26.24,26.91,14.08-.12,25.96-11.99,26.18-26.16,.24-14.91-11.36-26.51-26.47-26.46Z"/>
  <path class="cls-1" d="M312.28,221.13c-.06,49.64-40.15,89.95-89.59,90.09-49.65,.14-90.03-40.69-89.86-90.88,.17-49.38,40.79-89.74,90.12-89.55,49.35,.19,89.39,40.68,89.32,90.33Zm-90.39,25.95c15.15,.27,27.02-11.1,27.08-25.95,.06-14.26-11.43-26.12-25.73-26.6-14.46-.48-26.99,11.68-27.11,26.29-.11,14.29,11.37,26,25.76,26.25Z"/>
</svg>