<?xml version="1.0" encoding="UTF-8"?>
<svg id="Camada_1" data-name="Camada 1" xmlns="http://www.w3.org/2000/svg" viewBox="0 0 1080 1080">
  <defs>
    <style>
      .cls-1 {
        fill: #644595;
      }
    </style>
  </defs>
  <path class="cls-1" d="M196.39,1080c-13.5-7.17-17.48-17.71-15.2-33.11,13.86-93.35,26.83-186.83,40.48-280.21,1.5-10.29-.24-16.74-9.16-23.57-21.59-16.52-31.17-40.03-32.85-67.53h-44.47c0,17.57,0,35.35,0,53.12,0,32.22-8.17,39.98-39.75,34.68-46.19-7.75-77.23-35.06-90.46-79.4-13.45-45.07-.99-84.55,34.09-116.32,19.78-17.91,43.24-27.1,69.87-27.71,17.31-.4,26.1,8.38,26.22,25.57,.13,17.58,.03,35.16,.03,52.75,0,3.42,0,6.83,0,10.72h42.37c4.49-14.04,7.01-28.49,13.47-40.87,16.71-32.03,44.43-48.02,80.49-48.17,74.18-.32,148.37-.1,222.55-.1,3.76,0,7.53,0,12.61,0-8.97-22.49-17.49-43.82-26.06-65.3-41.6,6.45-79.58-1.2-114.19-24.06-33.66-22.23-55.05-53.33-66.28-91.9-23.8-81.74-47.87-163.4-71.78-245.11-6.89-23.55-1.66-32.89,21.83-39.78C330.9,50.07,411.56,26.4,492.23,2.72c22.52-6.61,32.24-1.65,38.69,20.44,25.05,85.75,51.17,171.22,74.59,257.41,18.95,69.75-11.88,138.97-74.56,175.58-2.09,1.22-4.05,2.65-6.8,4.46,6.65,16.58,13.21,32.95,20.57,51.31,10.7-27.19,27.26-46.28,52.63-55.47,11.96-4.33,25.24-6.33,38.02-6.78,27.67-.99,55.4-.3,84.45-.3,0-7.01-.24-13.23,.05-19.42,.75-16.47,9.59-24.76,26.1-25.14,22.28-.52,44.27-.06,64.19,12.15,26.27,16.09,42.22,38.95,44.13,69.94,.75,12.25,4.57,19.31,16.35,24.32,19.97,8.5,38.99,19.22,58.52,28.79,11.26,5.52,16.57,13.81,16.3,26.77-.57,27.42-.48,54.86-.03,82.28,.2,12.1-4.93,20.01-15.35,25.19-20.42,10.15-40.53,20.99-61.35,30.22-10.16,4.5-13.57,10.83-14.18,21.32-2.05,35-20.09,59.8-50.9,75.47-20.93,10.64-43.62,9.95-66.05,7.81-10.5-1-16.92-10.77-17.67-23.2-.38-6.28-.07-12.59-.07-19.78-3.56-.26-6.58-.66-9.6-.66-41.49-.04-82.98,.18-124.46-.23-7.16-.07-10.45,2.42-13.46,8.52-25.48,51.62-51.23,103.1-77.02,154.56-8.28,16.51-22.32,21.49-34.99,12.81-10.81-7.41-12.8-18.86-5.49-33.56,19.06-38.29,38.25-76.52,57.37-114.79,4.21-8.43,8.35-16.91,13.45-27.26-13.27,0-25.3-.48-37.24,.37-2.62,.19-5.48,4.77-7.26,7.88-39.61,69.14-79.37,138.19-118.49,207.61-30.12,53.45-73.87,87.21-135.12,96.96-1.3,.21-2.49,1.13-3.73,1.72h-27.42Zm522.69-361v-223.48c-31.93,0-63.16-.73-94.34,.26-19.77,.63-36.45,18.47-38.32,38.52-.98,10.47-.74,21.05-1.91,31.49-1.19,10.66-7.82,16.9-18.45,18.42-4.84,.69-9.77,1-14.67,1-89.94,.06-179.89,.03-269.83,.06-4.91,0-9.84,.11-14.73,.53-19.79,1.7-36.47,13.06-38.83,32.46-2.76,22.68-2.75,46.27,.24,68.92,2.6,19.69,21.26,32.11,41.33,32.13,147.91,.15,295.83,.1,443.74,.1,1.7,0,3.41-.23,5.76-.41ZM309.59,225.23c.48,3.26,.55,5.39,1.13,7.38,11.56,39.27,22.71,78.68,34.91,117.75,17.34,55.56,65.05,86.31,122.66,80,60.4-6.62,106.53-66.66,95.52-126.25-4.36-23.64-12.71-46.52-18.48-69.93-1.83-7.41-5.14-9.16-12.28-9.1-40.38,.33-80.77,.16-121.15,.16-33.68,0-67.36,0-102.31,0Zm-42.21,540.61c-12.61,88.29-25.22,176.51-37.86,265.04,2.34,0,3.39,.21,4.32-.03,38.04-9.77,66.31-32.09,85.7-66.16,36.08-63.37,72.37-126.62,108.55-189.93,1.5-2.63,2.74-5.41,4.49-8.91h-165.21Zm8.59-652.14c5.78,19.66,11.52,37.68,16.22,55.96,1.94,7.55,5.17,9.84,12.91,9.8,71.33-.3,142.65-.17,213.98-.21,2.95,0,5.9-.4,9.87-.68-12.71-43.36-25.09-85.59-37.56-128.11-72.11,21.16-143.24,42.04-215.42,63.22Zm490.31,337.98v312.63c4.72-.8,8.9-1.03,12.77-2.24,19.63-6.17,31.15-22.99,31.19-46.21,.13-72.39,.09-144.77-.04-217.16,0-5.21-.79-10.55-2.07-15.6-4.91-19.39-22.89-32.88-41.85-31.42ZM89.03,714.45v-123.59c-24.27,6.63-42.01,31.41-43.09,59.28-1.11,28.77,15.95,54.74,43.09,64.32Zm767.34-159.69v105.22c13.92-6.87,26.87-12.92,39.39-19.75,2.27-1.24,3.88-5.64,3.95-8.63,.38-16.15,.38-32.31,0-48.46-.07-2.99-1.67-7.4-3.94-8.63-12.52-6.83-25.47-12.88-39.4-19.75Z"/>
  <path class="cls-1" d="M1080.3,478.66c-17.84,18.73-35.19,37.96-53.72,55.97-8.63,8.38-21.43,6.73-29.54-1.26-8.28-8.15-9.6-21.13-1.11-30.31,15.21-16.44,30.89-32.57,47.56-47.51,12.63-11.33,25.33-6.99,36.81,10.45v12.66Z"/>
  <path class="cls-1" d="M1080.3,748.74c-11.92,22.3-30.92,19.04-44.13,4.45-11.99-13.24-25.4-25.18-37.71-38.14-12.27-12.93-10.4-29.48,3.72-37.29,8.62-4.77,17.72-4.38,24.45,2.31,18.33,18.24,35.84,37.29,53.68,56.02v12.66Z"/>
  <path class="cls-1" d="M1080.3,613.7c-6.26,13.05-17.05,17.35-30.91,16.74-11.19-.49-22.42,.16-33.62-.18-15.21-.47-26.12-10.65-25.68-23.42,.43-12.73,10.7-21.95,25.68-22.36,12.95-.35,25.92-.05,38.88-.08,12.18-.03,20.37,6.05,25.65,16.64v12.66Z"/>
</svg>