<?xml version="1.0" encoding="UTF-8"?>
<svg id="Camada_1" data-name="Camada 1" xmlns="http://www.w3.org/2000/svg" viewBox="0 0 1080 1080">
  <defs>
    <style>
      .cls-1 {
        fill: #644595;
      }
    </style>
  </defs>
  <path class="cls-1" d="M1079.96,573.86c-2.84,19.03-4.64,38.29-8.77,57.03-6.54,29.66-14.66,58.97-22.47,89.88-21.83-7.73-41.42-14.68-61.87-21.93,42.28-116.36,39.37-231.25-8.3-344.32-39.8-94.42-104.26-168.55-191.89-221.67C613.56,27.94,401.06,44.81,249.02,166.48c2.24,14.37,6.01,28.02,6.19,41.71,.71,52.44-42.77,95.46-94.9,95.12-51.97-.34-94.45-42.91-94.54-94.73-.12-65.73,63.4-111.8,125.23-90.19,9.12,3.19,14.61,1.01,21.37-4.27,63.43-49.51,134.19-84.34,212.93-100.97,166.27-35.11,317.27,.14,450.38,105.26,108.21,85.45,173.27,197.97,197.39,333.86,2.93,16.52,4.62,33.26,6.89,49.89v71.7ZM160.89,238.96c17.44-.1,31.71-14.46,31.31-31.52-.39-16.86-14.27-30.36-31.31-30.46-17.53-.1-31.85,13.83-31.86,30.98,0,17.13,14.35,31.1,31.85,31Z"/>
  <path class="cls-1" d="M502.22,1080c-18.67-2.75-37.44-5.01-56.01-8.33-113.39-20.23-210.24-72.15-290.86-154.05C76.02,837.02,26.7,740.54,7.48,629.11c-15.54-90.11-6.43-178.25,24.28-264.26,.45-1.27,1.07-2.49,2.05-4.73,19.62,6.94,38.98,13.79,59.51,21.06-47.02,132.11-37.86,260.27,27.33,383.64,44.85,84.88,110.61,150,195.28,195.22,176.17,94.06,377.14,65.41,517.18-47.91-10.11-24.33-11.66-49.22-1.95-74.35,16.48-42.64,61.54-67.48,107.06-58.97,42.86,8.02,75.99,47.55,76.35,91.1,.39,46.98-31.12,86.84-75.89,95.69-17.96,3.55-35.76,2.33-52.73-4.63-5.76-2.36-9.42-1.47-14.06,2.19-68.36,53.89-145.02,90.13-230.55,106.9-18.19,3.57-36.75,5.27-55.13,7.9-3.42,.49-6.8,1.34-10.19,2.03h-73.8Zm417.43-176.74c17.47,.02,31.8-14.1,31.64-31.2-.16-16.78-14.04-30.56-31-30.77-17.57-.22-31.92,13.45-32.16,30.66-.24,17.07,14.07,31.29,31.52,31.31Z"/>
  <path class="cls-1" d="M540.63,192.17c192.25,.07,347.57,155.93,347.45,348.63-.13,192.17-156.08,347.43-348.83,347.27-192.01-.15-347.15-156.29-346.96-349.19,.19-191.53,156.18-346.79,348.34-346.72Zm-32.97,316v-240.71c-50.14,32.65-104.2,176.77-90.78,240.71h90.78Zm.16,305.38v-241.13h-93.03c1.01,11.53,1.81,22.31,2.91,33.07,4.89,47.71,15.67,93.95,36.07,137.54,12.56,26.84,28.02,51.73,54.04,70.52Zm64.48-305.63h92.52c0-2.97,.29-5.4-.04-7.73-4.24-29.8-6.88-59.95-13.26-89.28-9.6-44.12-25.54-86.05-54.74-121.55-6.72-8.17-14.99-15.08-24.48-24.48v243.06Zm-.03,303.81c1.16,.44,2.31,.88,3.47,1.32,68.32-65.4,81.54-151.65,90.39-240.74h-93.86v239.42Zm104.31-519.99c34.35,68.06,48.42,140.8,52.98,216.15h93.47c-13.92-96.38-62.51-168.21-146.44-216.15Zm-.04,496.85c83.93-48.11,132.66-119.93,146.48-216.27h-93.47c-4.54,75.54-18.68,148.23-53.01,216.27Zm-272.79-.13c-34.33-68.04-48.48-140.74-52.94-216.11h-93.49c13.92,96.36,62.5,168.18,146.43,216.11Zm-.02-496.64c-84.03,47.91-132.55,119.84-146.41,215.96h93.51c4.49-75.56,18.67-148.06,52.91-215.96Z"/>
</svg>