<?xml version="1.0" encoding="UTF-8"?>
<svg id="Camada_1" data-name="Camada 1" xmlns="http://www.w3.org/2000/svg" viewBox="0 0 595.28 459.87">
  <defs>
    <style>
      .cls-1 {
        fill: #8e62a6;
      }

      .cls-2 {
        fill: none;
        stroke: #84468a;
        stroke-miterlimit: 10;
        stroke-width: 7px;
      }

      .cls-3 {
        fill: #284250;
      }
    </style>
  </defs>
  <g>
    <path class="cls-3" d="M185.52,231.19c13.42,13.64,27.16,20.46,44.07,13.21,4.92-2.11,10.71-3.34,13.56-9.45,4.86-10.41,12.09-19.21,19.22-28.3,13.15-16.77,24.02-35.33,35.75-53.19,6.33-9.63,7.79-19.96,2.35-30.3-3.12-5.94-2.7-9.67,3.53-12.74,3.46-1.7,6.51-4.23,9.74-6.38,7.65-5.08,14.77-11.28,25.15-5.58,9.82,5.4,5.55,14.32,6.39,22.26,5.14,2.44,9.66-2.85,15.17-.43,10.34,4.52,13.62,14.02,5.71,24.66-4.01,5.39-3.16,7.25,2.1,9.08,19.07,6.63,20.37,10.26,8.29,27.85,8.88,.62,18.26,.38,20.45,11.23,2.09,10.34-4.94,16.13-11.26,22.14-32.72,31.13-63.92,64.22-107.13,81.72-12.93,5.23-27.52,6.85-38.21,17.08-3.6,3.44-5.81,1.42-8.09-1.81-15.38-21.76-30.72-43.55-46.39-65.1-3.47-4.77-2.24-9-.43-15.95Z"/>
    <path class="cls-3" d="M92.34,322.79c-.46-3.86,2.81-8.52,7.16-12.72,19.47-18.79,39.04-37.48,58.29-56.49,4.01-3.97,6.18-5.01,9.89,.28,18.31,26.12,36.64,52.24,55.65,77.85,4.51,6.08,4.75,9.32-1.02,14.08-5.6,4.63-10.37,10.28-15.51,15.47-18.13,18.33-19.47,18.22-42.64,7.01-19.01-9.2-38.44-17.53-57.76-26.07-7.54-3.34-13.46-7.71-14.07-19.4Z"/>
    <path class="cls-1" d="M497.52,324.84c-2.53,7.93-7.92,14.58-16.04,18.27-22.68,10.3-46.17,18.81-68.15,30.71-9,4.88-15.53,1.64-23.06-5.32-28.22-26.05-28.55-25.63-7.1-55.46,13.1-18.22,26.16-36.46,39.02-54.85,3.76-5.38,6.11-8.88,12.61-2.01,17.94,18.98,33.96,39.91,55.63,55.23,3.8,2.68,6.07,7.51,7.09,13.43Z"/>
    <path class="cls-1" d="M285.15,140.06c-6.3,4.56-7.49,11.62-15.4,12.25-6.16,.49-1.53,4.94-1.29,7.74,.68,8.06-.55,14.89-10.89,14.84-6.3-.03-8.5,3.62-8.87,9.16-.16,2.42,.54,5.41-.61,7.18-7.23,11.07-16.62,20.33-20.34,34.18-1.72,6.39-13.47,7.36-18.61,.51-5.71-7.63-13.6-12.17-20.12-18.49-12.5-12.14-11.91-21.56,3.51-29.53,6.15-3.18,5.21-4.05,2.4-8.8-8.15-13.81-6.21-20.04,8.43-25.29,5.13-1.84,5.06-2.97,4.21-7.73-2.19-12.33,4.36-20.92,16.26-19.61,7.74,.85,6.92-13.09,14.26-6.12,4.05,3.84,5.11,11.96,9.5,14.1,11.75,5.72,21.6,15.93,37.54,15.61Z"/>
    <path class="cls-1" d="M351.24,314.29c-7.58-6.25-18.55-8.02-28.97-11.33-4.27-1.36-4.81-4.59-.78-7.5,25.12-18.16,49.13-37.56,69.63-60.97,3.43-3.91,8.23-7.41,12.52-3.32,3.98,3.79,7.37,11.04,3.86,15.71-16.27,21.66-29.53,45.6-48.76,65.03-1.6,1.61-3.03,4.06-7.51,2.38Z"/>
    <path class="cls-1" d="M303.49,88.72c-10.81,12.27-22.32,16.62-31.69,23.75-5.37,4.09-9.53-1.87-13.89-4.76-3.66-2.43-6.25-6.24-5.6-9.53,1-5.1,6.89-4.08,10.81-4.65,12.04-1.73,24.15-2.92,40.37-4.8Z"/>
  </g>
  <rect class="cls-2" x="5.35" y="8.4" width="584.57" height="444.37" rx="32.02" ry="32.02"/>
</svg>